<?xml version="1.0" encoding="utf-8"?>
<!-- Generator: Adobe Illustrator 16.0.0, SVG Export Plug-In . SVG Version: 6.00 Build 0)  -->
<!DOCTYPE svg PUBLIC "-//W3C//DTD SVG 1.1//EN" "http://www.w3.org/Graphics/SVG/1.1/DTD/svg11.dtd">
<svg version="1.1" id="Layer_1" xmlns="http://www.w3.org/2000/svg" xmlns:xlink="http://www.w3.org/1999/xlink" x="0px" y="0px"
	 width="53.54px" height="63.54px" viewBox="0 0 53.54 63.54" enable-background="new 0 0 53.54 63.54" xml:space="preserve">
<polyline fill="#FFFFFF" points="26.769,52.638 5.99,31.757 26.677,11.079 47.549,31.713 26.769,52.638 "/>
<g>
	<polygon fill="#010D0B" points="9.865,35.665 26.644,19.05 43.514,35.665 47.549,31.713 26.677,11.079 5.99,31.757 	"/>
	<polygon fill="#010D0B" points="26.769,52.638 11.169,37.358 26.769,22.078 42.369,37.358 	"/>
	<polygon fill="#4BB1BD" points="26.769,30.629 28.61,35.561 27.315,35.299 27.444,40.058 25.952,40.056 26.099,35.288 
		24.929,35.458 	"/>
	<polygon fill="#4BB1BD" points="25.962,41.459 27.561,41.459 27.852,45.643 25.687,45.901 	"/>
	<path fill="#4BB1BD" d="M29.68,36.204l0.412,1.246c0,0,0.811-0.166,0.859-0.152c0.83,0.273,1.336,0.633,1.428,1.061
		c0.09,0.429-0.746,2.066-5.246,2.066c-4.498,0-4.601-1.312-4.691-1.637c-0.288-1.041,1.875-1.527,2.646-1.752
		c0,0-1.009-1.035-1.673-1.035c0,0-3.401,1.003-3.401,2.219c-0.001,1.508,2.702,2.877,7.12,2.833
		c4.419-0.046,6.368-1.392,6.389-2.503c0.025-1.213-1.375-1.537-1.375-1.537l0.412-0.137L29.68,36.204z"/>
</g>
<path fill="#4BB1BD" d="M64.688,39.143"/>
<polygon fill="#0B2956" points="9.865,35.665 26.644,19.05 43.514,35.665 47.549,31.713 26.676,10.668 5.99,31.757 "/>
<polygon fill="#1453BB" points="26.552,21.839 42.391,37.313 26.552,52.872 11.036,37.356 "/>
<polygon fill="#FFFFFF" points="26.67,30.034 28.503,35.42 27.18,35.133 27.356,40.127 25.853,40.127 26.006,35.127 24.844,35.12 
	"/>
<polygon fill="#FFFFFF" points="25.834,41.395 27.427,41.395 27.713,46.135 25.562,46.149 "/>
<path fill="#FFFFFF" d="M29.208,36.176l0.411,1.266c0,0,0.81-0.17,0.855-0.15c0.824,0.279,1.329,0.643,1.423,1.074
	c0.086,0.433-0.745,2.098-5.22,2.098c-4.474,0-4.574-1.326-4.667-1.659c-0.285-1.057,1.865-1.554,2.629-1.778
	c0,0-1.002-1.051-1.667-1.051c0,0-3.386,1.022-3.386,2.252c0,1.531,2.688,2.922,7.084,2.875c4.397-0.049,6.335-1.416,6.354-2.543
	c0.027-1.229-1.367-1.563-1.367-1.563l0.41-0.139L29.208,36.176z"/>
</svg>
