<?xml version="1.0" encoding="UTF-8" standalone="no"?>
<!-- Created with Inkscape (http://www.inkscape.org/) -->

<svg
   xmlns:dc="http://purl.org/dc/elements/1.1/"
   xmlns:cc="http://creativecommons.org/ns#"
   xmlns:rdf="http://www.w3.org/1999/02/22-rdf-syntax-ns#"
   xmlns:svg="http://www.w3.org/2000/svg"
   xmlns="http://www.w3.org/2000/svg"
   xmlns:sodipodi="http://sodipodi.sourceforge.net/DTD/sodipodi-0.dtd"
   xmlns:inkscape="http://www.inkscape.org/namespaces/inkscape"
   width="1366.67"
   height="567.37231"
   id="svg2"
   version="1.1"
   inkscape:version="0.48.5 r10040"
   sodipodi:docname="New document 1">
  <defs
     id="defs4" />
  <sodipodi:namedview
     id="base"
     pagecolor="#ffffff"
     bordercolor="#666666"
     borderopacity="1.0"
     inkscape:pageopacity="0.0"
     inkscape:pageshadow="2"
     inkscape:zoom="0.24"
     inkscape:cx="662.09627"
     inkscape:cy="303.57803"
     inkscape:document-units="px"
     inkscape:current-layer="layer1"
     showgrid="false"
     inkscape:window-width="501"
     inkscape:window-height="532"
     inkscape:window-x="814"
     inkscape:window-y="88"
     inkscape:window-maximized="0"
     fit-margin-top="0"
     fit-margin-left="0"
     fit-margin-right="0"
     fit-margin-bottom="0" />
  <metadata
     id="metadata7">
    <rdf:RDF>
      <cc:Work
         rdf:about="">
        <dc:format>image/svg+xml</dc:format>
        <dc:type
           rdf:resource="http://purl.org/dc/dcmitype/StillImage" />
        <dc:title></dc:title>
      </cc:Work>
    </rdf:RDF>
  </metadata>
  <g
     inkscape:label="Layer 1"
     inkscape:groupmode="layer"
     id="layer1"
     transform="translate(-85.706897,-167.25054)">
    <g
       id="g3003"
       style="stroke-width:4">
      <path
         sodipodi:nodetypes="csc"
         inkscape:connector-curvature="0"
         id="path2985"
         d="m 131.42857,292.36218 c 79.33752,-4.4236 165.12796,72.98144 214.28572,60 22.05193,-5.82341 13.19826,36.73764 20,57.14286"
         style="fill:none;stroke:#000000;stroke-width:4;stroke-linecap:butt;stroke-linejoin:miter;stroke-opacity:1" />
      <path
         inkscape:connector-curvature="0"
         id="path2987"
         d="m 134.28571,295.21933 c 4.9759,16.82481 -6.10044,22.08481 -2.85714,28.57142 1.02072,2.04144 12.54791,-1.7378 14.28572,0 9.66707,9.66708 123.86391,30.50339 148.57142,42.85715 18.25455,9.12727 54.28572,89.21417 54.28572,111.42857 0,0.84256 -48.57143,-19.81776 -48.57143,8.57143 0,0.80401 26.42862,-1.07141 28.57143,0 16.14649,8.07324 8.42819,25.57105 20,37.14285 25.02643,25.02644 14.28571,110.68919 14.28571,148.57143 0,4.7513 -18.96103,29.6104 -17.14285,31.42857 7.88178,7.88179 17.02981,-11.54161 31.42857,2.85715 6.38876,6.38876 8.57143,34.74936 8.57143,25.71428 0,-9.38484 4.98805,-24.26181 5.71428,-25.71428 3.85685,-7.7137 25.71429,11.48132 25.71429,2.85714 0,-8.8443 -6.91925,-12.63353 -11.42857,-17.14286 -5.31552,-5.31551 -11.42858,-236.85319 -11.42858,-257.14285"
         style="fill:none;stroke:#000000;stroke-width:4;stroke-linecap:butt;stroke-linejoin:miter;stroke-opacity:1" />
      <path
         inkscape:connector-curvature="0"
         id="path2989"
         d="m 393.10345,436.84494 c -3.02563,-25.88779 33.20649,-9.06856 53.44827,-29.31034 6.17588,-6.17588 -10.60996,-21.88353 -5.17241,-32.75862 6.47656,-12.95312 23.98871,-30.88527 32.75862,-39.65518 23.14246,-23.14245 86.57603,-12.43809 110.34483,-36.20689 17.07061,-17.07062 63.7931,5.28425 63.7931,-24.13793 0,-2.75557 4.46551,-6.58624 3.44828,-8.62069 -12.711,-25.42199 -107.54343,25.86207 -117.24138,25.86207 -55.1722,0 -52.70608,-7.63876 -98.27586,37.93103 -7.72137,7.72136 -6.48737,23.72875 -12.06897,29.31034 -12.04724,12.04724 -22.06759,-12.76136 -29.31034,1.72414 -13.96255,27.9251 1.27183,35.20824 -27.58621,44.82759"
         style="fill:none;stroke:#000000;stroke-width:4;stroke-linecap:butt;stroke-linejoin:miter;stroke-opacity:1" />
    </g>
    <path
       style="fill:none;stroke:#000000;stroke-width:4;stroke-linecap:butt;stroke-linejoin:miter;stroke-opacity:1"
       d="m 86.206897,221.3277 c 36.222083,1.2177 74.137933,45.60025 74.137933,70.68966"
       id="path2991"
       inkscape:connector-curvature="0" />
    <path
       style="fill:none;stroke:#000000;stroke-width:4;stroke-linecap:butt;stroke-linejoin:miter;stroke-opacity:1"
       d="m 160.34483,333.39667 c 17.92734,41.80856 18.92555,98.39576 5.17241,139.65517 -3.42465,10.27396 10.34483,9.17924 10.34483,20.68965 0,25.55711 -43.58805,18.48092 -36.2069,25.86207 12.27513,12.27513 24.99766,11.20455 29.31035,15.51724 2.84899,2.849 1.72414,13.52481 1.72414,18.96552 0,36.9236 6.89655,71.72042 6.89655,106.89655 0,18.78666 -4.88828,32.19035 -10.34483,43.10345 -1.00484,2.00968 -14.613,9.52493 -12.06897,12.06897 12.30992,12.30991 31.80971,-11.12005 32.75862,-12.06897 6.01072,-6.01071 38.56052,15.51724 48.27587,15.51724 5.42182,0 -8.94368,-6.19597 -13.79311,-8.62069 -8.27214,-4.13607 -7.3024,-21.09551 -13.7931,-27.5862 -6.67805,-6.67805 12.67761,-83.87412 -5.17241,-101.72414 -13.40353,-13.40353 -1.08657,-104.08586 10.34482,-115.51724 5.50028,-5.50028 -9.24364,-93.24819 -18.96551,-122.4138"
       id="path2993"
       inkscape:connector-curvature="0" />
    <path
       style="fill:none;stroke:#000000;stroke-width:4;stroke-linecap:butt;stroke-linejoin:miter;stroke-opacity:1"
       d="m 191.37931,300.63804 c 8.79928,-19.83163 -10.34483,-51.15962 -10.34483,-58.62068 0,-21.99379 11.54176,-39.12797 22.4138,-50 3.74666,-3.74667 -1.85032,-15.51725 3.44827,-15.51725 2.03867,0 -20.68965,0.0279 -20.68965,0 0,-11.37873 -16.09196,16.09196 -24.13793,24.13793 -5.89055,5.89055 -18.10361,6.03433 -25.86207,-1.72413 -1.52732,-1.52732 -10.65849,-15.20358 -12.06897,-13.79311 -3.85109,3.8511 -4.93945,17.1249 -12.06896,20.68966 -12.321233,6.16061 -25.447609,12.69066 -22.413798,17.24138"
       id="path2995"
       inkscape:connector-curvature="0" />
    <path
       style="fill:none;stroke:#000000;stroke-width:4;stroke-linecap:butt;stroke-linejoin:miter;stroke-opacity:1"
       d="M 520.68966,181.67253 C 555.95853,207.52482 541.18897,258.68771 550,285.1208"
       id="path2997"
       inkscape:connector-curvature="0" />
    <path
       style="fill:none;stroke:#000000;stroke-width:4;stroke-linecap:butt;stroke-linejoin:miter;stroke-opacity:1"
       d="m 553.44828,314.43115 c 14.21971,137.60355 -17.46032,205.95712 0,332.75862 2.43528,17.68562 1.72413,38.25337 1.72413,50 0,1.17762 -9.41906,11.27059 -5.17241,15.51724 6.44529,6.44529 20.58285,-3.34147 22.41379,-5.17241 3.49584,-3.49584 7.1251,8.62069 12.06897,8.62069 1.0833,0 9.72185,-11.44599 10.34483,-12.06897 0.66582,-0.66582 39.74899,8.57378 50,3.44828 2.92799,-1.464 -10.94998,-18.45169 -12.06897,-20.68966 -8.91349,-17.82698 -12.06896,-41.27961 -12.06896,-63.7931 0,-23.5268 -17.28916,-87.83548 -12.06897,-98.27586 4.1743,-8.34861 18.95588,-12.10753 15.51724,-25.86207 -5.83154,-23.32618 -15.26728,-39.15526 -25.86207,-60.34483 -8.65716,-17.31432 0,-52.07498 0,-70.68966 0,-30.65873 -6.89655,-47.44471 -6.89655,-72.41379"
       id="path2999"
       inkscape:connector-curvature="0"
       sodipodi:nodetypes="csssssssssssssc" />
    <path
       style="fill:none;stroke:#000000;stroke-width:4;stroke-linecap:butt;stroke-linejoin:miter;stroke-opacity:1"
       d="m 587.93103,264.43115 c -8.55109,-29.58753 21.49003,-50.1234 6.89656,-79.31035 -2.32741,-4.65481 -6.92839,-15.51724 -1.72414,-15.51724 1.71783,0 -14.62426,17.68787 -18.96552,15.51724 -2.44431,-1.22215 -18.87985,-19.05118 -20.68965,-17.24138 -10.77755,10.77755 10.19563,27.53648 -31.03449,13.79311"
       id="path3001"
       inkscape:connector-curvature="0" />
    <path
       style="fill:none;stroke:#000000;stroke-width:4;stroke-linecap:butt;stroke-linejoin:miter;stroke-opacity:1"
       d="m 637.2549,232.0782 c 18.97011,47.39187 -0.76726,56.09548 25.4902,82.35294 2.5996,2.5996 5.88235,61.08631 5.88235,72.54902 0,19.27415 -22.27162,1.40599 -27.45098,11.7647 -0.80422,1.60844 -7.46219,19.9888 -5.88235,21.56863 6.48674,6.48674 19.24583,-6.06336 27.45098,-1.96078 8.6185,4.30925 7.84314,40.22445 7.84314,50.98039 0,8.72072 2.71881,23.2161 0,31.37255 -2.82884,8.48651 -17.8961,24.99213 -11.76471,37.2549 4.13576,8.27151 55.73961,20.73097 60.78431,15.68627 2.64049,-2.64048 0.24556,-7.96591 3.92157,-9.80392 1.54283,-0.77141 8.49663,1.3073 9.80392,0 2.74731,-2.7473 -9.69194,-12.57713 -11.7647,-15.68627 -2.60813,-3.91219 -1.07381,-16.76008 -3.92157,-19.60784 -5.21969,-5.2197 -1.96079,-28.04756 -1.96079,-37.25491 0,-11.92565 15.63135,-62.80002 5.88236,-72.54902 -6.61728,-6.61727 -15.68628,-70.82532 -15.68628,-80.39215 0,-7.96675 24.62367,-17.41934 17.64706,-31.37255 -6.46228,-12.92456 -21.60562,-11.8387 -29.41176,-27.45098 -8.64556,-17.29112 12.15363,-50.59147 17.64706,-70.58824 5.04899,-18.37896 -35.63979,26.75964 -37.25491,23.52941 -3.58189,-7.16378 -3.15745,-23.52941 -3.92156,-23.52941 -6.12291,0 -6.04736,-9.72142 -13.72549,-5.88235 -11.18913,5.59456 13.16797,43.75854 3.92156,41.17647 -42.12941,-11.76471 -38.80002,-17.60786 -23.52941,7.84314 z"
       id="path3008"
       inkscape:connector-curvature="0"
       transform="translate(85.706897,167.25054)"
       sodipodi:nodetypes="csssssssssssssssssssssssc" />
    <path
       style="fill:none;stroke:#000000;stroke-width:4;stroke-linecap:butt;stroke-linejoin:miter;stroke-opacity:1"
       d="m 977.73523,185.54347 c -71.10731,56.29731 -210.10121,-20.32854 -206.52863,77.3844 2.50266,68.44999 122.48758,87.38835 151.01562,144.44444 27.2342,54.4684 -57.09102,65.97992 -88.88888,97.77778 -18.12561,18.12561 -3.93482,55.55556 49.30125,55.55556 2.51798,0 -1.53733,-30.56248 10.69874,-24.44444 5.20081,2.6004 71.11111,28.52113 71.11111,22.22222 0,-11.39463 -15.27402,-19.43693 -20,-28.88889 -10.09096,-20.18193 23.56111,-35.34166 31.11112,-46.66667 7.92789,-11.89184 4.43677,-28.88122 13.33333,-37.77778 22.66161,-22.66164 -84.45568,-135.8325 -97.03358,-148.41039 -7.26014,-7.26015 -50.26207,-23.19894 -36.99102,-36.46998 22.68722,-22.68723 151.46341,-3.66957 162.91351,-15.11963 17.2899,-17.28995 -24.05868,-16.47756 -44.09365,-13.29077 -19.48367,3.0991 32.06615,-28.45297 4.05108,-46.31585 z"
       id="path3016"
       inkscape:connector-curvature="0"
       transform="translate(85.706897,167.25054)"
       sodipodi:nodetypes="csssssssssssssc" />
    <path
       style="fill:none;stroke:#000000;stroke-width:4;stroke-linecap:butt;stroke-linejoin:miter;stroke-opacity:1"
       d="m 1056.2863,148.54575 c -1.7844,3.84257 -0.015,2.98075 -3.0948,6.06061 -3.9116,3.91159 11.4362,26.32979 12.7659,27.65957 16.6855,16.68549 84.4044,-2.82971 100,12.76596 17.5836,17.58351 71.2526,46.17503 100,40.42553 24.7271,-4.94542 55.0454,-36.99171 53.1915,-42.55319 -2.0677,-6.20314 -8.1424,-10.27007 -12.7659,-14.89362 3.5461,-2.12766 8.5106,-9.92907 10.6383,-6.38298 2.1276,3.5461 -14.7737,6.38298 -10.6383,6.38298 6.0596,0 11.6014,-9.0929 17.0213,-6.38298 48.0977,24.04885 -20.7309,54.28289 -17.0213,61.70213 3.7464,7.49276 45.7063,15.99579 36.1702,25.53192 -5.9249,5.92487 -131.4014,3.74178 -134.0426,6.38297 -1.6809,1.68094 -13.8681,58.47229 -2.1276,70.21277 4.6099,4.60993 -4.61,23.04965 0,27.65958 5.2129,5.21296 22.4084,11.77016 27.6596,17.02127 7.6005,7.60051 -2.3334,17.1241 -6.383,19.14894 -7.4505,3.72524 -26.8001,-3.84667 -27.6596,-2.12766 -4.0257,8.05149 0,27.69898 0,31.91489 0,7.67653 -4.4185,78.23384 -2.1277,85.10639 5.578,16.73394 29.7873,34.26354 29.7873,53.19148 0,10.82596 -22.7699,-8.51063 -36.1702,-8.51063 -11.0411,0 -19.6125,-9.40067 -27.6596,-6.38298 -2.7864,1.0449 -23.081,12.76595 -25.5319,12.76595 -4.2553,0 -12.766,4.25532 -12.766,0 0,-9.64 11.3823,-20.63693 14.8936,-27.65957 6.3151,-12.6302 6.383,-32.13243 6.383,-48.93617 0,-0.88559 9.1618,-52.5403 2.1277,-59.57447 -5.6603,-5.66022 -11.2364,-6.98106 -14.8936,-10.6383 -9.4405,-9.44041 -26.5477,26.6438 -40.4256,12.76596 -21.5243,-21.52436 31.3684,-31.36836 42.5532,-42.55319 0.9882,-0.98815 2.8201,-44.19089 2.1277,-61.70213 -3.1945,-80.79562 -57.7094,-104.34284 -70.2128,-108.51064 -9.2248,-3.07492 -31.0092,-1.22196 -38.2979,-8.51063 -13.3312,-13.3312 26.6934,-5.22156 12.766,-19.14894 -1.4184,-1.41844 -2.8369,-2.83688 -4.2553,-4.25532 -6.4614,-6.46141 -30.149,-24.80834 -25.5319,-34.04255 6.5188,-13.03767 15.841,25.05821 23.4042,21.27659 3.1917,-1.59583 0.6802,-41.86487 7.608,-52.25661 1.5391,-2.30868 22.4209,33.10768 11.5409,33.10768"
       id="path3018"
       inkscape:connector-curvature="0"
       transform="translate(85.706897,167.25054)"
       sodipodi:nodetypes="cscsscccsssssssssssssssssssssscssscssssc" />
  </g>
</svg>
